<mxfile host="65bd71144e" scale="3" border="0">
    <diagram id="aw2tME8MYQPTS3ObVP5B" name="Page-1">
        <mxGraphModel dx="1566" dy="1907" grid="0" gridSize="10" guides="1" tooltips="1" connect="1" arrows="1" fold="1" page="1" pageScale="1" pageWidth="1169" pageHeight="827" background="#FFFFFF" math="1" shadow="0">
            <root>
                <mxCell id="0"/>
                <mxCell id="1" parent="0"/>
                <mxCell id="249" value="" style="endArrow=none;html=1;fontColor=#66FF66;strokeColor=#000000;strokeWidth=4;fontSize=32;exitX=0.99;exitY=0.501;exitDx=0;exitDy=0;exitPerimeter=0;" parent="1" source="241" edge="1">
                    <mxGeometry width="50" height="50" relative="1" as="geometry">
                        <mxPoint x="530.15" y="58" as="sourcePoint"/>
                        <mxPoint x="504.15" y="19" as="targetPoint"/>
                        <Array as="points">
                            <mxPoint x="521.15" y="44"/>
                        </Array>
                    </mxGeometry>
                </mxCell>
                <mxCell id="237" value="" style="shape=cylinder3;whiteSpace=wrap;html=1;boundedLbl=1;backgroundOutline=1;size=23.464742532859695;fontColor=#66FF66;strokeWidth=4;fontSize=32;rotation=-100;" parent="1" vertex="1">
                    <mxGeometry x="599.6899999999999" y="217.39" width="46.29" height="155.61" as="geometry"/>
                </mxCell>
                <mxCell id="235" value="" style="shape=cylinder3;whiteSpace=wrap;html=1;boundedLbl=1;backgroundOutline=1;size=4.904974089441552;fontColor=#66FF66;strokeWidth=4;fontSize=32;rotation=-145;" parent="1" vertex="1">
                    <mxGeometry x="605.15" y="255.68999999999994" width="49.73" height="71.31" as="geometry"/>
                </mxCell>
                <mxCell id="90" value="" style="shape=cylinder3;whiteSpace=wrap;html=1;boundedLbl=1;backgroundOutline=1;size=21.244128648632966;fontColor=#66FF66;strokeWidth=4;fontSize=32;rotation=-100;" parent="1" vertex="1">
                    <mxGeometry x="493.85" y="471.02" width="49.73" height="71.31" as="geometry"/>
                </mxCell>
                <mxCell id="165" value="&lt;font style=&quot;font-size: 32px;&quot;&gt;$$ \{0,1\} $$&lt;/font&gt;" style="text;html=1;strokeColor=none;fillColor=none;align=center;verticalAlign=middle;whiteSpace=wrap;rounded=0;strokeWidth=4;fontSize=32;fontFamily=Times New Roman;" parent="1" vertex="1">
                    <mxGeometry x="470.15" y="671.9980920241999" width="39.14999125675108" height="30.464113735257282" as="geometry"/>
                </mxCell>
                <mxCell id="230" value="" style="endArrow=classic;html=1;strokeColor=#0000FF;strokeWidth=4;fontSize=32;entryX=1;entryY=0;entryDx=0;entryDy=0;" parent="1" edge="1" target="257">
                    <mxGeometry width="50" height="50" relative="1" as="geometry">
                        <mxPoint x="515.1499999999999" y="506.39" as="sourcePoint"/>
                        <mxPoint x="583.15" y="493" as="targetPoint"/>
                    </mxGeometry>
                </mxCell>
                <mxCell id="231" value="" style="shape=cube;whiteSpace=wrap;html=1;boundedLbl=1;backgroundOutline=1;darkOpacity=0.05;darkOpacity2=0.1;rotation=105;strokeWidth=4;fontSize=32;" parent="1" vertex="1">
                    <mxGeometry x="504.15" y="430" width="60" height="60" as="geometry"/>
                </mxCell>
                <mxCell id="232" value="" style="endArrow=none;html=1;fontColor=#66FF66;strokeColor=#000000;strokeWidth=4;fontSize=32;entryX=0.085;entryY=0.146;entryDx=0;entryDy=0;entryPerimeter=0;" parent="1" target="233" edge="1">
                    <mxGeometry width="50" height="50" relative="1" as="geometry">
                        <mxPoint x="541.15" y="439" as="sourcePoint"/>
                        <mxPoint x="557.15" y="383" as="targetPoint"/>
                    </mxGeometry>
                </mxCell>
                <mxCell id="233" value="" style="shape=cylinder3;whiteSpace=wrap;html=1;boundedLbl=1;backgroundOutline=1;size=21.244128648632966;fontColor=#66FF66;strokeWidth=4;fontSize=32;rotation=-100;" parent="1" vertex="1">
                    <mxGeometry x="561.15" y="327" width="49.73" height="71.31" as="geometry"/>
                </mxCell>
                <mxCell id="234" value="" style="endArrow=none;html=1;fontColor=#66FF66;strokeColor=#000000;strokeWidth=4;fontSize=32;" parent="1" edge="1">
                    <mxGeometry width="50" height="50" relative="1" as="geometry">
                        <mxPoint x="592.15" y="343" as="sourcePoint"/>
                        <mxPoint x="612.15" y="316" as="targetPoint"/>
                    </mxGeometry>
                </mxCell>
                <mxCell id="236" value="" style="endArrow=classic;html=1;strokeColor=#0000FF;strokeWidth=4;fontSize=32;" parent="1" edge="1">
                    <mxGeometry width="50" height="50" relative="1" as="geometry">
                        <mxPoint x="516.15" y="507" as="sourcePoint"/>
                        <mxPoint x="556.15" y="406" as="targetPoint"/>
                    </mxGeometry>
                </mxCell>
                <mxCell id="238" value="" style="endArrow=none;html=1;fontColor=#66FF66;strokeColor=#000000;strokeWidth=4;fontSize=32;" parent="1" source="235" target="239" edge="1">
                    <mxGeometry width="50" height="50" relative="1" as="geometry">
                        <mxPoint x="614.15" y="268" as="sourcePoint"/>
                        <mxPoint x="683.88" y="199.14999999999998" as="targetPoint"/>
                    </mxGeometry>
                </mxCell>
                <mxCell id="239" value="" style="shape=cube;whiteSpace=wrap;html=1;boundedLbl=1;backgroundOutline=1;darkOpacity=0.05;darkOpacity2=0.1;rotation=75;strokeWidth=4;fontSize=32;" parent="1" vertex="1">
                    <mxGeometry x="556.02" y="161" width="60" height="60" as="geometry"/>
                </mxCell>
                <mxCell id="240" value="" style="endArrow=none;html=1;fontColor=#66FF66;strokeColor=#000000;strokeWidth=4;fontSize=32;startArrow=none;" parent="1" source="303" edge="1">
                    <mxGeometry width="50" height="50" relative="1" as="geometry">
                        <mxPoint x="578.9499999999999" y="173.70999999999975" as="sourcePoint"/>
                        <mxPoint x="546.15" y="92" as="targetPoint"/>
                    </mxGeometry>
                </mxCell>
                <mxCell id="241" value="" style="shape=cylinder3;whiteSpace=wrap;html=1;boundedLbl=1;backgroundOutline=1;size=23.464742532859695;fontColor=#66FF66;strokeWidth=4;fontSize=32;rotation=-100;" parent="1" vertex="1">
                    <mxGeometry x="514.86" y="31" width="46.29" height="106.66" as="geometry"/>
                </mxCell>
                <mxCell id="243" value="" style="shape=cylinder3;whiteSpace=wrap;html=1;boundedLbl=1;backgroundOutline=1;size=4.904974089441552;fontColor=#66FF66;strokeWidth=4;fontSize=32;rotation=144;" parent="1" vertex="1">
                    <mxGeometry x="479.1" y="-20" width="35.76" height="55" as="geometry"/>
                </mxCell>
                <mxCell id="245" value="" style="endArrow=classic;html=1;strokeColor=#0000FF;strokeWidth=4;fontSize=32;" parent="1" edge="1">
                    <mxGeometry width="50" height="50" relative="1" as="geometry">
                        <mxPoint x="624.15" y="299.03999999999985" as="sourcePoint"/>
                        <mxPoint x="664.15" y="233" as="targetPoint"/>
                    </mxGeometry>
                </mxCell>
                <mxCell id="246" value="" style="endArrow=classic;html=1;strokeColor=#0000FF;strokeWidth=4;fontSize=32;" parent="1" edge="1">
                    <mxGeometry width="50" height="50" relative="1" as="geometry">
                        <mxPoint x="626.15" y="295.96999999999997" as="sourcePoint"/>
                        <mxPoint x="515" y="320" as="targetPoint"/>
                    </mxGeometry>
                </mxCell>
                <mxCell id="247" value="" style="endArrow=classic;html=1;strokeColor=#0000FF;strokeWidth=4;fontSize=32;" parent="1" edge="1">
                    <mxGeometry width="50" height="50" relative="1" as="geometry">
                        <mxPoint x="628.15" y="296" as="sourcePoint"/>
                        <mxPoint x="590.15" y="201" as="targetPoint"/>
                    </mxGeometry>
                </mxCell>
                <mxCell id="248" value="" style="endArrow=classic;html=1;strokeColor=#0000FF;strokeWidth=4;fontSize=32;" parent="1" edge="1">
                    <mxGeometry width="50" height="50" relative="1" as="geometry">
                        <mxPoint x="550.15" y="83" as="sourcePoint"/>
                        <mxPoint x="461" y="105" as="targetPoint"/>
                    </mxGeometry>
                </mxCell>
                <mxCell id="250" value="" style="endArrow=none;html=1;fontColor=#66FF66;strokeColor=#000000;strokeWidth=4;fontSize=32;exitX=0.99;exitY=0.501;exitDx=0;exitDy=0;exitPerimeter=0;" parent="1" edge="1">
                    <mxGeometry width="50" height="50" relative="1" as="geometry">
                        <mxPoint x="493.8513342642773" y="1.9739707507717412" as="sourcePoint"/>
                        <mxPoint x="463.8299999999999" y="-41" as="targetPoint"/>
                        <Array as="points">
                            <mxPoint x="480.8299999999999" y="-16"/>
                        </Array>
                    </mxGeometry>
                </mxCell>
                <mxCell id="251" value="" style="shape=cylinder3;whiteSpace=wrap;html=1;boundedLbl=1;backgroundOutline=1;size=4.904974089441552;fontColor=#66FF66;strokeWidth=4;fontSize=32;rotation=144;" parent="1" vertex="1">
                    <mxGeometry x="438.78" y="-80" width="35.76" height="55" as="geometry"/>
                </mxCell>
                <mxCell id="252" value="" style="endArrow=classic;html=1;strokeColor=#0000FF;strokeWidth=4;fontSize=32;" parent="1" edge="1">
                    <mxGeometry width="50" height="50" relative="1" as="geometry">
                        <mxPoint x="497.15" y="12" as="sourcePoint"/>
                        <mxPoint x="475.15" y="-26" as="targetPoint"/>
                    </mxGeometry>
                </mxCell>
                <mxCell id="254" value="" style="endArrow=classic;html=1;strokeColor=#0000FF;strokeWidth=4;fontSize=32;" parent="1" edge="1">
                    <mxGeometry width="50" height="50" relative="1" as="geometry">
                        <mxPoint x="457.15" y="-51" as="sourcePoint"/>
                        <mxPoint x="423.15" y="-102" as="targetPoint"/>
                    </mxGeometry>
                </mxCell>
                <mxCell id="164" value="&lt;font style=&quot;font-size: 32px;&quot; color=&quot;#00cc00&quot;&gt;$$ \hat Y _{0}^s $$&lt;/font&gt;" style="text;html=1;strokeColor=none;fillColor=none;align=center;verticalAlign=middle;whiteSpace=wrap;rounded=0;strokeWidth=4;fontSize=32;fontFamily=Times New Roman;" parent="1" vertex="1">
                    <mxGeometry x="587.1505208689418" y="634.7858862647427" width="39.14999125675108" height="30.464113735257282" as="geometry"/>
                </mxCell>
                <mxCell id="3" value="" style="shape=cube;whiteSpace=wrap;html=1;boundedLbl=1;backgroundOutline=1;darkOpacity=0.05;darkOpacity2=0.1;rotation=90;strokeWidth=4;fontSize=32;" parent="1" vertex="1">
                    <mxGeometry x="498.15" y="605.25" width="60" height="60" as="geometry"/>
                </mxCell>
                <mxCell id="81" value="" style="endArrow=none;html=1;strokeWidth=4;fontSize=32;" parent="1" edge="1">
                    <mxGeometry width="50" height="50" relative="1" as="geometry">
                        <mxPoint x="524.15" y="616.25" as="sourcePoint"/>
                        <mxPoint x="524.15" y="532" as="targetPoint"/>
                    </mxGeometry>
                </mxCell>
                <mxCell id="160" value="" style="endArrow=blockThin;html=1;strokeWidth=4;fontSize=32;fontFamily=Times New Roman;endFill=1;endSize=12;strokeColor=#0000FF;jumpSize=2;startSize=2;" parent="1" edge="1">
                    <mxGeometry width="50" height="50" relative="1" as="geometry">
                        <mxPoint x="519.9448178245476" y="648.8100925506099" as="sourcePoint"/>
                        <mxPoint x="520.15" y="565" as="targetPoint"/>
                    </mxGeometry>
                </mxCell>
                <mxCell id="166" value="" style="endArrow=blockThin;html=1;strokeWidth=4;fontSize=32;fontFamily=Times New Roman;endSize=12;endFill=1;strokeColor=#00CC00;jumpSize=2;startSize=2;" parent="1" edge="1">
                    <mxGeometry width="50" height="50" relative="1" as="geometry">
                        <mxPoint x="520.1491786610645" y="646.8209046968884" as="sourcePoint"/>
                        <mxPoint x="598.15" y="623" as="targetPoint"/>
                    </mxGeometry>
                </mxCell>
                <mxCell id="162" value="" style="endArrow=blockThin;html=1;strokeWidth=4;fontSize=32;fontFamily=Times New Roman;endSize=12;endFill=1;strokeColor=#FF3333;jumpSize=2;startSize=2;" parent="1" edge="1">
                    <mxGeometry width="50" height="50" relative="1" as="geometry">
                        <mxPoint x="521.1460961515138" y="647.3788743311918" as="sourcePoint"/>
                        <mxPoint x="588.15" y="706" as="targetPoint"/>
                    </mxGeometry>
                </mxCell>
                <mxCell id="256" value="" style="endArrow=blockThin;html=1;strokeWidth=4;fontSize=32;fontFamily=Times New Roman;endSize=12;endFill=1;strokeColor=#FF3333;jumpSize=2;startSize=2;" parent="1" edge="1">
                    <mxGeometry width="50" height="50" relative="1" as="geometry">
                        <mxPoint x="518.1460961515139" y="508.1388743311916" as="sourcePoint"/>
                        <mxPoint x="574.15" y="551" as="targetPoint"/>
                    </mxGeometry>
                </mxCell>
                <mxCell id="257" value="&lt;font style=&quot;font-size: 32px;&quot; color=&quot;#0000ff&quot;&gt;$$ \hat Z _{2}^s $$&lt;/font&gt;" style="text;html=1;strokeColor=none;fillColor=none;align=center;verticalAlign=middle;whiteSpace=wrap;rounded=0;strokeWidth=4;fontSize=32;fontFamily=Times New Roman;" parent="1" vertex="1">
                    <mxGeometry x="404.0038978600197" y="520.997028351295" width="39.14999125675108" height="30.464113735257282" as="geometry"/>
                </mxCell>
                <mxCell id="258" value="&lt;font style=&quot;font-size: 32px;&quot; color=&quot;#0000ff&quot;&gt;$$ \hat Z _{3}^s $$&lt;/font&gt;" style="text;html=1;strokeColor=none;fillColor=none;align=center;verticalAlign=middle;whiteSpace=wrap;rounded=0;strokeWidth=4;fontSize=32;fontFamily=Times New Roman;" parent="1" vertex="1">
                    <mxGeometry x="501.0038978600197" y="392.60702835129496" width="39.14999125675108" height="30.464113735257282" as="geometry"/>
                </mxCell>
                <mxCell id="264" value="" style="group;fontSize=32;" parent="1" vertex="1" connectable="0">
                    <mxGeometry x="587.1549151429007" y="536.3" width="86.14999125675104" height="30.464113735257285" as="geometry"/>
                </mxCell>
                <mxCell id="262" value="&lt;font style=&quot;font-size: 32px;&quot; color=&quot;#ff3333&quot;&gt;$$ \hat X _{2} ^s$$&lt;/font&gt;" style="text;html=1;strokeColor=none;fillColor=none;align=center;verticalAlign=middle;whiteSpace=wrap;rounded=0;strokeWidth=4;fontSize=32;fontFamily=Times New Roman;" parent="264" vertex="1">
                    <mxGeometry width="39.14999125675108" height="30.464113735257282" as="geometry"/>
                </mxCell>
                <mxCell id="263" value="&lt;font style=&quot;font-size: 32px;&quot; color=&quot;#ff3333&quot;&gt;$$ =\hat X _{3} ^s$$&lt;/font&gt;" style="text;html=1;strokeColor=none;fillColor=none;align=center;verticalAlign=middle;whiteSpace=wrap;rounded=0;strokeWidth=4;fontSize=32;fontFamily=Times New Roman;" parent="264" vertex="1">
                    <mxGeometry x="47" width="39.14999125675108" height="30.464113735257282" as="geometry"/>
                </mxCell>
                <mxCell id="265" value="&lt;font style=&quot;font-size: 32px;&quot; color=&quot;#0000ff&quot;&gt;$$ \hat Z _{5}^s $$&lt;/font&gt;" style="text;html=1;strokeColor=none;fillColor=none;align=center;verticalAlign=middle;whiteSpace=wrap;rounded=0;strokeWidth=4;fontSize=32;fontFamily=Times New Roman;" parent="1" vertex="1">
                    <mxGeometry x="665.1538978600197" y="212.9970283512949" width="39.14999125675108" height="30.464113735257282" as="geometry"/>
                </mxCell>
                <mxCell id="266" value="" style="endArrow=blockThin;html=1;strokeWidth=4;fontSize=32;fontFamily=Times New Roman;endSize=12;endFill=1;strokeColor=#FF3333;jumpSize=2;startSize=2;" parent="1" edge="1">
                    <mxGeometry width="50" height="50" relative="1" as="geometry">
                        <mxPoint x="626.2960961515139" y="298.9988743311918" as="sourcePoint"/>
                        <mxPoint x="676.14" y="362" as="targetPoint"/>
                    </mxGeometry>
                </mxCell>
                <mxCell id="271" value="" style="group;fontSize=32;" parent="1" vertex="1" connectable="0">
                    <mxGeometry x="651.0049151429007" y="371" width="86.14999125675104" height="32.464113735257285" as="geometry"/>
                </mxCell>
                <mxCell id="267" value="&lt;font style=&quot;font-size: 32px;&quot; color=&quot;#ff3333&quot;&gt;$$ \hat X _{4} ^s$$&lt;/font&gt;" style="text;html=1;strokeColor=none;fillColor=none;align=center;verticalAlign=middle;whiteSpace=wrap;rounded=0;strokeWidth=4;fontSize=32;fontFamily=Times New Roman;" parent="271" vertex="1">
                    <mxGeometry width="39.14999125675108" height="30.464113735257282" as="geometry"/>
                </mxCell>
                <mxCell id="270" value="&lt;font style=&quot;font-size: 32px;&quot; color=&quot;#ff3333&quot;&gt;$$ =\hat X _{5} ^s$$&lt;/font&gt;" style="text;html=1;strokeColor=none;fillColor=none;align=center;verticalAlign=middle;whiteSpace=wrap;rounded=0;strokeWidth=4;fontSize=32;fontFamily=Times New Roman;" parent="271" vertex="1">
                    <mxGeometry x="47" y="2" width="39.14999125675108" height="30.464113735257282" as="geometry"/>
                </mxCell>
                <mxCell id="273" value="&lt;font style=&quot;font-size: 32px;&quot; color=&quot;#0000ff&quot;&gt;$$ \hat Z _{7}^s $$&lt;/font&gt;" style="text;html=1;strokeColor=none;fillColor=none;align=center;verticalAlign=middle;whiteSpace=wrap;rounded=0;strokeWidth=4;fontSize=32;fontFamily=Times New Roman;" parent="1" vertex="1">
                    <mxGeometry x="556.0238978600197" y="230.0370283512949" width="39.14999125675108" height="30.464113735257282" as="geometry"/>
                </mxCell>
                <mxCell id="274" value="" style="endArrow=blockThin;html=1;strokeWidth=4;fontSize=32;fontFamily=Times New Roman;endSize=12;endFill=1;strokeColor=#FF3333;jumpSize=2;startSize=2;" parent="1" edge="1">
                    <mxGeometry width="50" height="50" relative="1" as="geometry">
                        <mxPoint x="624.15" y="298" as="sourcePoint"/>
                        <mxPoint x="695.15" y="298" as="targetPoint"/>
                    </mxGeometry>
                </mxCell>
                <mxCell id="276" value="&lt;font style=&quot;font-size: 32px;&quot; color=&quot;#0000ff&quot;&gt;$$ \hat Z _{8}^s $$&lt;/font&gt;" style="text;html=1;strokeColor=none;fillColor=none;align=center;verticalAlign=middle;whiteSpace=wrap;rounded=0;strokeWidth=4;fontSize=32;fontFamily=Times New Roman;" parent="1" vertex="1">
                    <mxGeometry x="470.1538978600197" y="121.99702835129489" width="39.14999125675108" height="30.464113735257282" as="geometry"/>
                </mxCell>
                <mxCell id="277" value="" style="group;fontSize=32;" parent="1" vertex="1" connectable="0">
                    <mxGeometry x="685.0049151429007" y="311.94" width="86.14999125675104" height="32.464113735257285" as="geometry"/>
                </mxCell>
                <mxCell id="278" value="&lt;font style=&quot;font-size: 32px;&quot; color=&quot;#ff3333&quot;&gt;$$ \hat X _{6} ^s$$&lt;/font&gt;" style="text;html=1;strokeColor=none;fillColor=none;align=center;verticalAlign=middle;whiteSpace=wrap;rounded=0;strokeWidth=4;fontSize=32;fontFamily=Times New Roman;" parent="277" vertex="1">
                    <mxGeometry width="39.14999125675108" height="30.464113735257282" as="geometry"/>
                </mxCell>
                <mxCell id="279" value="&lt;font style=&quot;font-size: 32px;&quot; color=&quot;#ff3333&quot;&gt;$$ =\hat X _{7} ^s$$&lt;/font&gt;" style="text;html=1;strokeColor=none;fillColor=none;align=center;verticalAlign=middle;whiteSpace=wrap;rounded=0;strokeWidth=4;fontSize=32;fontFamily=Times New Roman;" parent="277" vertex="1">
                    <mxGeometry x="47" y="2" width="39.14999125675108" height="30.464113735257282" as="geometry"/>
                </mxCell>
                <mxCell id="284" value="&lt;font style=&quot;font-size: 32px;&quot; color=&quot;#0000ff&quot;&gt;$$ \hat Z _{9}^s $$&lt;/font&gt;" style="text;html=1;strokeColor=none;fillColor=none;align=center;verticalAlign=middle;whiteSpace=wrap;rounded=0;strokeWidth=4;fontSize=32;fontFamily=Times New Roman;" parent="1" vertex="1">
                    <mxGeometry x="446.1538978600197" y="11.997028351294887" width="39.14999125675108" height="30.464113735257282" as="geometry"/>
                </mxCell>
                <mxCell id="285" value="&lt;font style=&quot;font-size: 32px;&quot; color=&quot;#0000ff&quot;&gt;$$ \hat Z _{10}^s $$&lt;/font&gt;" style="text;html=1;strokeColor=none;fillColor=none;align=center;verticalAlign=middle;whiteSpace=wrap;rounded=0;strokeWidth=4;fontSize=32;fontFamily=Times New Roman;" parent="1" vertex="1">
                    <mxGeometry x="393.1538978600197" y="-74.00297164870511" width="39.14999125675108" height="30.464113735257282" as="geometry"/>
                </mxCell>
                <mxCell id="286" value="" style="endArrow=blockThin;html=1;strokeWidth=4;fontSize=32;fontFamily=Times New Roman;endSize=12;endFill=1;strokeColor=#FF3333;jumpSize=2;startSize=2;" parent="1" edge="1">
                    <mxGeometry width="50" height="50" relative="1" as="geometry">
                        <mxPoint x="548.7260961515141" y="81.99887433119193" as="sourcePoint"/>
                        <mxPoint x="616.15" y="24" as="targetPoint"/>
                    </mxGeometry>
                </mxCell>
                <mxCell id="287" value="" style="endArrow=blockThin;html=1;strokeWidth=4;fontSize=32;fontFamily=Times New Roman;endSize=12;endFill=1;strokeColor=#FF3333;jumpSize=2;startSize=2;" parent="1" edge="1">
                    <mxGeometry width="50" height="50" relative="1" as="geometry">
                        <mxPoint x="496.7260961515143" y="11.998874331191928" as="sourcePoint"/>
                        <mxPoint x="547.15" y="-31" as="targetPoint"/>
                    </mxGeometry>
                </mxCell>
                <mxCell id="288" value="" style="endArrow=blockThin;html=1;strokeWidth=4;fontSize=32;fontFamily=Times New Roman;endSize=12;endFill=1;strokeColor=#FF3333;jumpSize=2;startSize=2;" parent="1" edge="1">
                    <mxGeometry width="50" height="50" relative="1" as="geometry">
                        <mxPoint x="453.8760961515143" y="-53.00112566880807" as="sourcePoint"/>
                        <mxPoint x="504.15" y="-96" as="targetPoint"/>
                    </mxGeometry>
                </mxCell>
                <mxCell id="289" value="&lt;font style=&quot;font-size: 32px;&quot; color=&quot;#ff3333&quot;&gt;$$ \hat X _{9} ^s$$&lt;/font&gt;" style="text;html=1;strokeColor=none;fillColor=none;align=center;verticalAlign=middle;whiteSpace=wrap;rounded=0;strokeWidth=4;fontSize=32;fontFamily=Times New Roman;" parent="1" vertex="1">
                    <mxGeometry x="535.1549151429007" y="-11" width="39.14999125675108" height="30.464113735257282" as="geometry"/>
                </mxCell>
                <mxCell id="290" value="&lt;font style=&quot;font-size: 32px;&quot; color=&quot;#ff3333&quot;&gt;$$ \hat X _{8} ^s$$&lt;/font&gt;" style="text;html=1;strokeColor=none;fillColor=none;align=center;verticalAlign=middle;whiteSpace=wrap;rounded=0;strokeWidth=4;fontSize=32;fontFamily=Times New Roman;" parent="1" vertex="1">
                    <mxGeometry x="618.0049151429007" y="-11" width="39.14999125675108" height="30.464113735257282" as="geometry"/>
                </mxCell>
                <mxCell id="291" value="&lt;font style=&quot;font-size: 32px;&quot; color=&quot;#ff3333&quot;&gt;$$ \hat X _{10} ^s$$&lt;/font&gt;" style="text;html=1;strokeColor=none;fillColor=none;align=center;verticalAlign=middle;whiteSpace=wrap;rounded=0;strokeWidth=4;fontSize=32;fontFamily=Times New Roman;" parent="1" vertex="1">
                    <mxGeometry x="504.43491514290065" y="-96" width="39.14999125675108" height="30.464113735257282" as="geometry"/>
                </mxCell>
                <mxCell id="293" value="" style="group;fontSize=32;" parent="1" vertex="1" connectable="0">
                    <mxGeometry x="416.1538978600197" y="585.9970283512948" width="84.84999125675108" height="31.004113735257306" as="geometry"/>
                </mxCell>
                <mxCell id="163" value="&lt;font style=&quot;font-size: 32px;&quot; color=&quot;#0000ff&quot;&gt;$$ \hat Z _{0}^s $$&lt;/font&gt;" style="text;html=1;strokeColor=none;fillColor=none;align=center;verticalAlign=middle;whiteSpace=wrap;rounded=0;strokeWidth=4;fontSize=32;fontFamily=Times New Roman;" parent="293" vertex="1">
                    <mxGeometry y="0.5400000000000205" width="39.14999125675108" height="30.464113735257282" as="geometry"/>
                </mxCell>
                <mxCell id="292" value="&lt;font style=&quot;font-size: 32px;&quot; color=&quot;#0000ff&quot;&gt;$$ =\hat Z _{1}^s $$&lt;/font&gt;" style="text;html=1;strokeColor=none;fillColor=none;align=center;verticalAlign=middle;whiteSpace=wrap;rounded=0;strokeWidth=4;fontSize=32;fontFamily=Times New Roman;" parent="293" vertex="1">
                    <mxGeometry x="45.700000000000045" width="39.14999125675108" height="30.464113735257282" as="geometry"/>
                </mxCell>
                <mxCell id="295" value="" style="group;fontSize=32;" parent="1" vertex="1" connectable="0">
                    <mxGeometry x="542.1549151429007" y="708" width="86.14999125675104" height="30.464113735257285" as="geometry"/>
                </mxCell>
                <mxCell id="296" value="&lt;font style=&quot;font-size: 32px;&quot; color=&quot;#ff3333&quot;&gt;$$ \hat X _{0} ^s$$&lt;/font&gt;" style="text;html=1;strokeColor=none;fillColor=none;align=center;verticalAlign=middle;whiteSpace=wrap;rounded=0;strokeWidth=4;fontSize=32;fontFamily=Times New Roman;" parent="295" vertex="1">
                    <mxGeometry width="39.14999125675108" height="30.464113735257282" as="geometry"/>
                </mxCell>
                <mxCell id="297" value="&lt;font style=&quot;font-size: 32px;&quot; color=&quot;#ff3333&quot;&gt;$$ =\hat X _{1} ^s$$&lt;/font&gt;" style="text;html=1;strokeColor=none;fillColor=none;align=center;verticalAlign=middle;whiteSpace=wrap;rounded=0;strokeWidth=4;fontSize=32;fontFamily=Times New Roman;" parent="295" vertex="1">
                    <mxGeometry x="47" width="39.14999125675108" height="30.464113735257282" as="geometry"/>
                </mxCell>
                <mxCell id="300" value="&lt;font style=&quot;font-size: 32px;&quot;&gt;$$ \{2,3\} $$&lt;/font&gt;" style="text;html=1;strokeColor=none;fillColor=none;align=center;verticalAlign=middle;whiteSpace=wrap;rounded=0;strokeWidth=4;fontSize=32;fontFamily=Times New Roman;" parent="1" vertex="1">
                    <mxGeometry x="399.63000000000005" y="472.9980920241999" width="39.14999125675108" height="30.464113735257282" as="geometry"/>
                </mxCell>
                <mxCell id="302" value="&lt;font style=&quot;font-size: 32px;&quot;&gt;$$ \{4,5,6,7\} $$&lt;/font&gt;" style="text;html=1;strokeColor=none;fillColor=none;align=center;verticalAlign=middle;whiteSpace=wrap;rounded=0;strokeWidth=4;fontSize=32;fontFamily=Times New Roman;" parent="1" vertex="1">
                    <mxGeometry x="750" y="252.99809202419988" width="39.14999125675108" height="30.464113735257282" as="geometry"/>
                </mxCell>
                <mxCell id="304" value="" style="endArrow=none;html=1;fontColor=#66FF66;strokeColor=#000000;strokeWidth=4;fontSize=32;" parent="1" target="303" edge="1">
                    <mxGeometry width="50" height="50" relative="1" as="geometry">
                        <mxPoint x="578.9500000000002" y="173.7099999999998" as="sourcePoint"/>
                        <mxPoint x="546.15" y="92" as="targetPoint"/>
                    </mxGeometry>
                </mxCell>
                <mxCell id="303" value="&lt;font style=&quot;font-size: 32px;&quot;&gt;$$ \{8\} $$&lt;/font&gt;" style="text;html=1;strokeColor=none;fillColor=none;align=center;verticalAlign=middle;whiteSpace=wrap;rounded=0;strokeWidth=4;fontSize=32;fontFamily=Times New Roman;" parent="1" vertex="1">
                    <mxGeometry x="528.1500000000001" y="86.99809202419985" width="39.14999125675108" height="30.464113735257282" as="geometry"/>
                </mxCell>
                <mxCell id="305" value="&lt;font style=&quot;font-size: 32px;&quot;&gt;$$ \{9\} $$&lt;/font&gt;" style="text;html=1;strokeColor=none;fillColor=none;align=center;verticalAlign=middle;whiteSpace=wrap;rounded=0;strokeWidth=4;fontSize=32;fontFamily=Times New Roman;" parent="1" vertex="1">
                    <mxGeometry x="431.0000000000001" y="49.99809202419985" width="39.14999125675108" height="30.464113735257282" as="geometry"/>
                </mxCell>
                <mxCell id="306" value="&lt;font style=&quot;font-size: 32px;&quot;&gt;$$ \{10\} $$&lt;/font&gt;" style="text;html=1;strokeColor=none;fillColor=none;align=center;verticalAlign=middle;whiteSpace=wrap;rounded=0;strokeWidth=4;fontSize=32;fontFamily=Times New Roman;" parent="1" vertex="1">
                    <mxGeometry x="377.0000000000001" y="-41.46190797580016" width="39.14999125675108" height="30.464113735257282" as="geometry"/>
                </mxCell>
                <mxCell id="268" value="&lt;font style=&quot;font-size: 32px;&quot; color=&quot;#0000ff&quot;&gt;$$ =\hat Z _{6}^s $$&lt;/font&gt;" style="text;html=1;strokeColor=none;fillColor=none;align=center;verticalAlign=middle;whiteSpace=wrap;rounded=0;strokeWidth=4;fontSize=32;fontFamily=Times New Roman;" parent="1" vertex="1">
                    <mxGeometry x="483.93389786001967" y="281.4770283512949" width="39.14999125675108" height="30.464113735257282" as="geometry"/>
                </mxCell>
                <mxCell id="259" value="&lt;font style=&quot;font-size: 32px;&quot; color=&quot;#0000ff&quot;&gt;$$ \hat Z _{4}^s $$&lt;/font&gt;" style="text;html=1;strokeColor=none;fillColor=none;align=center;verticalAlign=middle;whiteSpace=wrap;rounded=0;strokeWidth=4;fontSize=32;fontFamily=Times New Roman;" parent="1" vertex="1">
                    <mxGeometry x="438.7838978600196" y="278.4470283512949" width="39.14999125675108" height="30.464113735257282" as="geometry"/>
                </mxCell>
            </root>
        </mxGraphModel>
    </diagram>
</mxfile>